<?xml version="1.0" standalone="no"?>
<!DOCTYPE svg PUBLIC "-//W3C//DTD SVG 20010904//EN"
 "http://www.w3.org/TR/2001/REC-SVG-20010904/DTD/svg10.dtd">
<svg version="1.0" xmlns="http://www.w3.org/2000/svg"
 width="700.000000pt" height="700.000000pt" viewBox="0 0 700.000000 700.000000"
 preserveAspectRatio="xMidYMid meet">
<metadata>
Created by potrace 1.14, written by Peter Selinger 2001-2017
</metadata>
<g transform="translate(0.000000,700.000000) scale(0.100000,-0.100000)"
fill="#000000" stroke="none">
<path d="M92 6983 c-18 -9 -45 -32 -60 -51 l-27 -35 -3 -2296 c-1 -1263 0
-2310 3 -2328 7 -39 46 -88 89 -110 29 -16 202 -17 2326 -18 2213 0 2297 1
2337 19 46 21 77 57 90 107 5 19 9 1006 8 2319 -1 2081 -2 2288 -17 2315 -21
39 -56 71 -91 84 -20 8 -722 11 -2325 11 -2106 0 -2300 -2 -2330 -17z"/>
<path d="M5654 6082 c-40 -20 -63 -42 -82 -77 -16 -28 -17 -213 -18 -2290 l0
-2260 -2270 -5 -2269 -5 -32 -23 c-67 -47 -92 -114 -72 -188 13 -43 69 -101
111 -112 17 -4 1091 -7 2387 -7 2146 1 2359 2 2386 17 39 21 61 46 78 88 21
52 19 4742 -2 4780 -45 82 -144 119 -217 82z"/>
<path d="M6764 5061 c-44 -20 -78 -60 -90 -107 -4 -16 -8 -1062 -8 -2324 l-1
-2295 -2295 -1 c-1262 0 -2308 -4 -2324 -8 -124 -31 -164 -192 -71 -280 52
-48 -77 -46 2484 -46 2672 0 2451 -6 2508 68 l28 37 3 2415 c3 2695 9 2472
-67 2525 -50 34 -113 40 -167 16z"/>
</g>
</svg>
